<svg id="Layer_1" data-name="Layer 1" xmlns="http://www.w3.org/2000/svg" xmlns:xlink="http://www.w3.org/1999/xlink" viewBox="0 0 500 500"><defs><style>.cls-1{fill:url(#linear-gradient);}</style><linearGradient id="linear-gradient" x1="73.223" y1="426.777" x2="426.777" y2="73.223" gradientUnits="userSpaceOnUse"><stop offset="0.006" stop-color="#7e24b2"/><stop offset="1" stop-color="#af59e2"/></linearGradient></defs><title>logo</title><path class="cls-1" d="M250,0C111.929,0,0,111.929,0,250S111.929,500,250,500,500,388.071,500,250,388.071,0,250,0Zm0,380.26a60.311,60.311,0,0,1-47.519-22.9,354.311,354.311,0,0,0,95.038,0A60.311,60.311,0,0,1,250,380.26ZM341.573,328.3a336.059,336.059,0,0,1-183.146,0c-22.913-6.473-32.969-34.336-19.8-54.839l14.433-22.444a57.314,57.314,0,0,0,9.027-30.924v-9.17c0-50.359,39.365-91.183,87.913-91.183s87.926,40.824,87.926,91.183h0v9.17a57.206,57.206,0,0,0,9.014,30.924l14.433,22.444C374.542,293.963,364.486,321.825,341.573,328.3Z"/></svg>